# AST/ASF file generated using VICON BodyLanguage
# -----------------------------------------------
:version 1.10
:name VICON
:units
  mass 1.0
  length 0.45
  angle deg
:documentation
   .ast/.asf automatically generated from VICON data using
   VICON BodyBuilder and BodyLanguage model FoxedUp or BRILLIANT.MOD
:root
   order TX TY TZ RX RY RZ
   axis XYZ
   position 0 0 0  
   orientation 0 0 0 
:bonedata
  begin
     id 1 
     name lhipjoint
     direction 0.575328 -0.747301 0.332475 
     length 2.40933 
     axis 0 0 0  XYZ
  end
  begin
     id 2 
     name lfemur
     direction 0.34202 -0.939693 0  
     length 7.31453  
     axis 0 0 20  XYZ
    dof rx ry rz
    limits (-160.0 20.0)
           (-70.0 70.0)
           (-60.0 70.0)
  end
  begin
     id 3 
     name ltibia
     direction 0.34202 -0.939693 0   
     length 7.82185   
     axis 0 0 20   XYZ
    dof rx
    limits (-10.0 170.0)
  end
  begin
     id 4 
     name lfoot
     direction 0.0795993 -0.218697 0.972541   
     length 2.19173   
     axis -90 7.62852e-016 20   XYZ
    dof rx rz
    limits (-45.0 90.0)
           (-70.0 20.0)
  end
  begin
     id 5 
     name ltoes
     direction 1.53537e-011 -4.21894e-011 1   
     length 1.10023   
     axis -90 7.62852e-016 20   XYZ
    dof rx
    limits (-90.0 20.0)
  end
  begin
     id 6 
     name rhipjoint
     direction -0.513884 -0.783789 0.348708   
     length 2.29716  
     axis 0 0 0  XYZ 
  end
  begin
     id 7 
     name rfemur
     direction -0.34202 -0.939693 0   
     length 7.59573   
     axis 0 0 -20   XYZ
    dof rx ry rz
    limits (-160.0 20.0)
           (-70.0 70.0)
           (-70.0 60.0)
  end
  begin
     id 8 
     name rtibia
     direction -0.34202 -0.939693 0   
     length 7.66402   
     axis 0 0 -20   XYZ
    dof rx
    limits (-10.0 170.0)
 end
 begin
     id 9 
     name rfoot
     direction -0.137793 -0.378584 0.915253   
     length 2.27056  
     axis -90 -7.62852e-016 -20   XYZ
    dof rx rz
    limits (-45.0 90.0)
           (-20.0 70.0)
  end
  begin
     id 10 
     name rtoes
     direction -1.53493e-011 -4.22159e-011 1   
     length 1.11766   
     axis -90 -7.62852e-016 -20   XYZ
    dof rx
    limits (-90.0 20.0)
  end
  begin
     id 11 
     name lowerback
     direction -0.00732775 0.998356 -0.05685   
     length 2.16513   
     axis 0 0 0   XYZ
    dof rx ry rz
    limits (-20.0 45.0)
           (-30.0 30.0)
           (-30.0 30.0)
  end
  begin
     id 12 
     name upperback
     direction 0.0218081 0.999627 -0.0164647   
     length 2.16755   
     axis 0 0 0   XYZ
    dof rx ry rz
    limits (-20.0 45.0)
           (-30.0 30.0)
           (-30.0 30.0)
  end
  begin
     id 13 
     name thorax
     direction 0.02365 0.999661 0.0108914   
     length 2.16932   
     axis 0 0 0   XYZ
    dof rx ry rz
    limits (-20.0 45.0)
           (-30.0 30.0)
           (-30.0 30.0)
  end
  begin
     id 14 
     name lowerneck
     direction -0.0523929 0.978385 0.200044   
     length 1.63877   
     axis 0 0 0   XYZ
    dof rx ry rz
    limits (-20.0 45.0)
           (-30.0 30.0)
           (-30.0 30.0)
  end
  begin
     id 15 
     name upperneck
     direction 0.0448674 0.981321 -0.187074   
     length 1.69014   
     axis 0 0 0   XYZ
    dof rx ry rz
    limits (-20.0 45.0)
           (-30.0 30.0)
           (-30.0 30.0)
  end
  begin
     id 16
     name head
     direction 0.0199089 0.996118 -0.0857429  
     length 1.70094  
     axis 0 0 0   XYZ
    dof rx ry rz
    limits (-20.0 45.0)
           (-30.0 30.0)
           (-30.0 30.0)
  end
  begin
     id 17 
     name lclavicle
     direction 0.940366 0.30191 -0.156722  
     length 3.37521  
     axis 0 0 0   XYZ
    dof ry rz
    limits (-20.0 10.0)
           (0.0 20.0)
  end
  begin
     id 18 
     name lhumerus
     direction 1 -4.4897e-011 -1.7911e-027   
     length 5.25287   
     axis 180 -30 -90   XYZ
    dof rx ry rz
    limits (-60.0 90.0)
           (-90.0 90.0)
           (-90.0 90.0)
  end
  begin
     id 19
     name lradius
     direction 1 -4.48951e-011 1.04424e-027   
     length 3.51014   
     axis 180 -30 -90   XYZ
    dof rx
    limits (-10.0 170.0)
  end
  begin
     id 20
     name lwrist
     direction 1 -4.48997e-011 -9.5942e-028   
     length 1.75507   
     axis 8.48502e-016 90 90   XYZ
    dof ry
    limits (-180.0 0.0)
 end
  begin
     id 21 
     name lhand
     direction 1 -4.48831e-011 -1.90777e-027   
     length 0.706179   
     axis 1.22306e-015 90 90   XYZ
    dof rx rz
    limits (-90.0 90.0)
           (-45.0 45.0)
  end
  begin
     id 22 
     name lfingers
     direction 1 -4.49108e-011 -3.85244e-027   
     length 0.569339   
     axis 2.44611e-015 90 90   XYZ
    dof rx
    limits (0.0 90.0)
  end
  begin
     id 23
     name lthumb
     direction 0.707107 -6.34953e-011 0.707107   
     length 0.817461   
     axis -90 45 -1.62303e-014   XYZ
    dof rx rz
    limits (-45.0 45.0)
           (-45.0 45.0)
  end
  begin
     id 24 
     name rclavicle
     direction -0.905329 0.382405 -0.184787   
     length 3.30787  
     axis 0 0 0   XYZ 
    dof ry rz
    limits (-10.0 20.0)
           (-20.0 0.0)
  end
  begin
     id 25 
     name rhumerus
     direction -1 -4.48953e-011 -9.15316e-029  
     length 5.28721   
     axis 180 30 90   XYZ
    dof rx ry rz
    limits (-90.0 60.0)
           (-90.0 90.0)
           (-90.0 90.0)
  end
  begin
     id 26 
     name rradius
     direction -1 -4.48987e-011 9.37824e-028   
     length 3.50544   
     axis 180 30 90   XYZ
    dof rx
    limits (-10.0 170.0)
  end
  begin
     id 27 
     name rwrist
     direction -1 -4.48967e-011 -9.58414e-028   
     length 1.75272   
     axis 8.48502e-016 -90 -90   XYZ
    dof ry
    limits (-180.0 0.0)
  end
  begin
     id 28
     name rhand
     direction -1 -4.48904e-011 -1.91266e-027   
     length 0.884996   
     axis 1.22306e-015 -90 -90   XYZ
    dof rx rz
    limits (-90.0 90.0)
           (-45.0 45.0)
  end
  begin
     id 29
     name rfingers
     direction -1 -4.4909e-011 -3.85015e-027   
     length 0.713507   
     axis 2.44611e-015 -90 -90   XYZ
    dof rx
    limits (0.0 90.0)
  end
  begin
     id 30
     name rthumb
     direction -0.707107 -6.34853e-011 0.707107   
     length 1.02446   
     axis -90 -45 1.62303e-014   XYZ
    dof rx rz
    limits (-45.0 45.0)
           (-45.0 45.0)
  end
:hierarchy
  begin
    root lhipjoint rhipjoint lowerback
    lhipjoint lfemur
    lfemur ltibia
    ltibia lfoot
    lfoot ltoes
    rhipjoint rfemur
    rfemur rtibia
    rtibia rfoot
    rfoot rtoes
    lowerback upperback
    upperback thorax
    thorax lowerneck lclavicle rclavicle
    lowerneck upperneck
    upperneck head
    lclavicle lhumerus
    lhumerus lradius
    lradius lwrist
    lwrist lhand lthumb
    lhand lfingers
    rclavicle rhumerus
    rhumerus rradius
    rradius rwrist
    rwrist rhand rthumb
    rhand rfingers
  end

#!OML:ASF F:\twosubjects\two\Thursday\Session 1\justin.ASF
:FULLY-SPECIFIED
:DEGREES
95
root 17.6075 13.0444 9.86065 -167.096 -87.0148 142.955
lowerback 26.2031 3.87277 -0.568514
upperback 13.9269 3.48496 1.39784
thorax 0.849106 1.05345 0.972826
lowerneck -23.7438 -2.08626 -10.2824
upperneck 27.1445 -0.000400839 2.48577
head 13.0983 -0.833632 2.67444
rclavicle 3.69739e-014 -8.74653e-015
rhumerus 20.1925 21.7428 -73.9668
rradius 85.0447
rwrist -12.2329
rhand -1.97458 8.51331
rfingers 7.12502
rthumb 23.6978 -20.0458
lclavicle 3.69739e-014 -8.74653e-015
lhumerus -4.93966 -24.4796 91.3158
lradius 58.8097
lwrist -15.707
lhand -14.6835 31.8145
lfingers 7.12502
lthumb 11.47 61.4807
rfemur -46.2221 -6.36369 11.1007
rtibia 66.5514
rfoot 3.64881 -0.509358
rtoes -10.5512
lfemur -47.0857 12.6109 -14.2648
ltibia 71.3303
lfoot -0.0709363 -8.74062
ltoes -10.7309
96
root 17.6067 13.0437 9.86322 -168.237 -86.9849 144.105
lowerback 26.1765 3.83707 -0.472069
upperback 13.9635 3.45439 1.3889
thorax 0.910144 1.04142 0.918073
lowerneck -23.7412 -2.12806 -10.3852
upperneck 27.2045 0.0188013 2.35184
head 13.1241 -0.859027 2.64256
rclavicle -2.9122e-014 2.5842e-014
rhumerus 20.7964 21.9215 -73.4144
rradius 84.6486
rwrist -14.9492
rhand -1.75972 8.21457
rfingers 7.12502
rthumb 23.9038 -20.3177
lclavicle -2.9122e-014 2.5842e-014
lhumerus -4.95609 -24.3569 91.3067
lradius 58.8683
lwrist -15.7424
lhand -15.1736 31.4832
lfingers 7.12502
lthumb 10.9973 61.1751
rfemur -46.2398 -6.27972 11.1324
rtibia 66.5397
rfoot 3.59616 -0.640722
rtoes -10.5539
lfemur -47.108 12.6412 -14.2236
ltibia 71.3688
lfoot -0.16836 -8.78169
ltoes -11.1964
97
root 17.6073 13.0448 9.86388 -169.795 -86.9372 145.642
lowerback 26.2059 3.82294 -0.426008
upperback 13.9516 3.44512 1.38622
thorax 0.886361 1.03907 0.890172
lowerneck -23.5192 -2.2179 -10.4386
upperneck 27.1189 -0.114053 2.32547
head 13.0554 -0.924128 2.6149
rclavicle -1.5704e-014 3.97569e-016
rhumerus 21.2489 22.0473 -72.8849
rradius 84.1244
rwrist -17.5433
rhand -0.444595 8.16243
rfingers 7.12502
rthumb 25.1645 -20.1988
lclavicle -1.5704e-014 3.97569e-016
lhumerus -5.06589 -24.2812 91.3047
lradius 58.9751
lwrist -15.6559
lhand -14.8181 31.7072
lfingers 7.12502
lthumb 11.3401 61.3806
rfemur -46.2034 -6.21727 11.2095
rtibia 66.5211
rfoot 3.55907 -0.651514
rtoes -10.3671
lfemur -47.0834 12.7401 -14.1548
ltibia 71.3953
lfoot -0.253971 -8.75847
ltoes -11.0486
98
root 17.6055 13.0459 9.86189 -172.226 -86.9145 148.085
lowerback 26.2024 3.79952 -0.441139
upperback 13.9231 3.41458 1.41454
thorax 0.853459 1.02236 0.936314
lowerneck -23.376 -2.30819 -10.454
upperneck 27.1711 -0.296312 2.43605
head 13.0611 -0.993255 2.62911
rclavicle 3.88624e-014 -1.94809e-014
rhumerus 21.8374 22.1084 -72.6407
rradius 83.3792
rwrist -19.6025
rhand 1.9637 7.66454
rfingers 7.12502
rthumb 27.4699 -20.3522
lclavicle 3.88624e-014 -1.94809e-014
lhumerus -5.15793 -24.1013 91.3227
lradius 59.0108
lwrist -15.5467
lhand -14.5302 32.0302
lfingers 7.12502
lthumb 11.6178 61.6882
rfemur -46.1922 -6.22953 11.3865
rtibia 66.5153
rfoot 3.51394 -0.488071
rtoes -10.9976
lfemur -47.0934 12.8221 -13.9999
ltibia 71.4169
lfoot -0.169985 -8.69305
ltoes -9.97002
99
root 17.6044 13.043 9.85832 -170.997 -86.8412 146.839
lowerback 26.1633 3.80591 -0.612689
upperback 13.9755 3.37492 1.33176
thorax 0.926481 0.992323 0.955859
lowerneck -23.4656 -2.30242 -10.3564
upperneck 27.3576 -0.33753 2.49968
head 13.1574 -1 2.63412
rclavicle -7.65321e-015 2.70347e-014
rhumerus 22.7304 22.0786 -72.5609
rradius 82.5602
rwrist -21.1107
rhand 2.73737 6.36374
rfingers 7.12502
rthumb 28.2096 -21.5332
lclavicle -7.65321e-015 2.70347e-014
lhumerus -5.06566 -23.9561 91.1634
lradius 58.9442
lwrist -15.488
lhand -15.1993 31.6084
lfingers 7.12502
lthumb 10.9725 61.3017
rfemur -46.192 -6.18168 11.3179
rtibia 66.525
rfoot 3.55626 -0.418335
rtoes -11.3011
lfemur -47.0688 12.8385 -14.0484
ltibia 71.4259
lfoot -0.0951586 -8.64034
ltoes -9.54637
100
root 17.6057 13.0402 9.85812 -170.259 -86.8019 146.065
lowerback 26.1518 3.82852 -0.60017
upperback 14.0368 3.39507 1.21463
thorax 1.00923 1.00436 0.819003
lowerneck -23.4818 -2.29105 -10.2408
upperneck 27.4612 -0.371198 2.51579
head 13.2045 -1.00451 2.61714
rclavicle -2.25621e-014 1.98785e-014
rhumerus 23.5225 21.9172 -72.2205
rradius 81.9226
rwrist -22.3336
rhand 1.38933 4.91598
rfingers 7.12502
rthumb 26.9204 -23.1867
lclavicle -2.25621e-014 1.98785e-014
lhumerus -4.89414 -24.1086 90.9187
lradius 58.8996
lwrist -15.3832
lhand -15.6355 31.0505
lfingers 7.12502
lthumb 10.5518 60.7657
rfemur -46.1733 -6.10702 11.2293
rtibia 66.5245
rfoot 3.64502 -0.412037
rtoes -10.07
lfemur -47.0344 12.7972 -14.0784
ltibia 71.4302
lfoot -0.0466093 -8.56748
ltoes -9.46846
101
root 17.6069 13.0431 9.86252 -172.364 -86.8372 148.203
lowerback 26.0887 3.77329 -0.528348
upperback 14.0176 3.3438 1.19157
thorax 1.02332 0.985334 0.767919
lowerneck -23.2652 -2.19918 -10.1583
upperneck 27.4392 -0.296955 2.49476
head 13.1443 -0.967412 2.60712
rclavicle 1.6201e-014 -2.90226e-014
rhumerus 24.2068 21.9852 -71.7196
rradius 81.3313
rwrist -23.6914
rhand 0.989012 4.16198
rfingers 7.12502
rthumb 26.5373 -23.9992
lclavicle 1.6201e-014 -2.90226e-014
lhumerus -4.89214 -24.0016 90.8058
lradius 58.9022
lwrist -15.2793
lhand -15.3848 30.9679
lfingers 7.12502
lthumb 10.7936 60.6706
rfemur -46.2026 -6.15014 11.3526
rtibia 66.5113
rfoot 3.64865 -0.325283
rtoes -9.64376
lfemur -47.0719 12.7678 -13.9664
ltibia 71.4302
lfoot 0.0163373 -8.34009
ltoes -7.91294
102
root 17.6079 13.0428 9.86599 -171.509 -86.8426 147.262
lowerback 26.2148 3.7204 -0.726722
upperback 13.9999 3.22583 1.17304
thorax 0.936597 0.913108 0.884088
lowerneck -23.1366 -2.06434 -10.1202
upperneck 27.452 -0.130798 2.46967
head 13.1099 -0.896894 2.6198
rclavicle 2.48481e-015 -1.98785e-015
rhumerus 24.9951 22.1032 -71.4587
rradius 80.4965
rwrist -24.8265
rhand 1.96799 4.49405
rfingers 7.12502
rthumb 27.474 -23.522
lclavicle 2.48481e-015 -1.98785e-015
lhumerus -4.90101 -23.6585 90.7736
lradius 58.8623
lwrist -15.2865
lhand -15.3118 31.0772
lfingers 7.12502
lthumb 10.864 60.7762
rfemur -46.1052 -6.25492 11.3142
rtibia 66.5008
rfoot 3.64873 -0.184388
rtoes -10.3845
lfemur -46.9702 12.7241 -14.0188
ltibia 71.4213
lfoot 0.000735923 -8.08074
ltoes -6.08446
103
root 17.6096 13.0386 9.86527 -168.05 -86.8121 143.66
lowerback 26.4326 3.77518 -0.996088
upperback 14.019 3.22206 1.15057
thorax 0.843785 0.891962 1.00606
lowerneck -23.0436 -2.02573 -10.0552
upperneck 27.4737 -0.0833371 2.36784
head 13.0967 -0.885837 2.57693
rclavicle 5.85421e-014 -2.70347e-014
rhumerus 25.7401 21.941 -71.0531
rradius 79.6007
rwrist -25.859
rhand 2.1367 4.86797
rfingers 7.12502
rthumb 27.6353 -23.1223
lclavicle 5.85421e-014 -2.70347e-014
lhumerus -4.77799 -23.6436 90.7914
lradius 58.8506
lwrist -15.236
lhand -15.0732 31.6103
lfingers 7.12502
lthumb 11.0942 61.2971
rfemur -45.9412 -6.25766 11.0706
rtibia 66.4899
rfoot 3.64974 -0.13474
rtoes -10.3716
lfemur -46.8101 12.6604 -14.2159
ltibia 71.4107
lfoot -0.0488272 -7.9915
ltoes -5.93049
104
root 17.6106 13.0386 9.86253 -167.657 -86.7668 143.296
lowerback 26.3928 3.85108 -1.03845
upperback 14.0289 3.312 1.15576
thorax 0.868358 0.934986 1.01467
lowerneck -22.8773 -2.03236 -10.0189
upperneck 27.4866 -0.104411 2.28028
head 13.0704 -0.90559 2.53204
rclavicle -2.60408e-014 2.22639e-014
rhumerus 26.4405 21.6663 -70.5011
rradius 78.7665
rwrist -27.1512
rhand 1.74546 4.73742
rfingers 7.12502
rthumb 27.2611 -23.3122
lclavicle -2.60408e-014 2.22639e-014
lhumerus -4.6921 -23.8029 90.838
lradius 58.8646
lwrist -15.1349
lhand -14.7586 32.0322
lfingers 7.12502
lthumb 11.3976 61.7025
rfemur -45.968 -6.15757 11.0536
rtibia 66.4699
rfoot 3.61901 -0.218192
rtoes -10.803
lfemur -46.8234 12.6546 -14.2448
ltibia 71.4116
lfoot -0.0651327 -7.93786
ltoes -6.0652
105
root 17.6114 13.0401 9.86263 -169.489 -86.7168 145.16
lowerback 26.3241 3.87959 -0.94447
upperback 14.0605 3.36975 1.21728
thorax 0.93613 0.965549 1.01677
lowerneck -22.9469 -2.11197 -10.2833
upperneck 27.6561 -0.10347 2.25078
head 13.1584 -0.946194 2.56701
rclavicle -1.55052e-014 2.46493e-014
rhumerus 27.1663 21.4981 -70.1459
rradius 77.9487
rwrist -28.2894
rhand 1.69174 4.65903
rfingers 7.12502
rthumb 27.2097 -23.3987
lclavicle -1.55052e-014 2.46493e-014
lhumerus -4.6156 -23.8273 90.9524
lradius 58.8271
lwrist -15.1068
lhand -14.7693 31.9791
lfingers 7.12502
lthumb 11.3872 61.6499
rfemur -46.0269 -6.09748 11.2259
rtibia 66.4588
rfoot 3.59919 -0.21806
rtoes -12.2153
lfemur -46.8422 12.6774 -14.1381
ltibia 71.4199
lfoot -0.231773 -7.85671
ltoes -5.55309
106
root 17.6107 13.0375 9.867 -168.896 -86.7052 144.563
lowerback 26.2852 3.84397 -0.999243
upperback 14.0882 3.30876 1.21908
thorax 0.983781 0.929689 1.06658
lowerneck -23.0201 -2.11642 -10.2311
upperneck 27.8229 -0.00695872 1.87641
head 13.24 -0.961187 2.42921
rclavicle -3.76697e-014 2.3059e-014
rhumerus 27.9144 21.4905 -69.912
rradius 77.2047
rwrist -29.3733
rhand 1.57394 4.61954
rfingers 7.12502
rthumb 27.0971 -23.4558
lclavicle -3.76697e-014 2.3059e-014
lhumerus -4.52063 -23.6566 90.9965
lradius 58.8213
lwrist -15.1396
lhand -14.6044 31.9911
lfingers 7.12502
lthumb 11.5463 61.653
rfemur -46.0328 -6.20398 11.17
rtibia 66.4749
rfoot 3.59899 -0.117896
rtoes -11.7626
lfemur -46.8581 12.6486 -14.208
ltibia 71.4372
lfoot -0.379122 -7.84047
ltoes -5.94426
107
root 17.6118 13.0313 9.86864 -164.875 -86.657 140.54
lowerback 26.2921 3.85187 -1.21263
upperback 14.0742 3.2705 1.09549
thorax 0.961079 0.904393 1.06233
lowerneck -22.9392 -2.05681 -9.97849
upperneck 27.9407 0.0681908 1.55208
head 13.2684 -0.954795 2.27299
rclavicle 1.19271e-015 -9.54166e-015
rhumerus 28.6332 21.2024 -69.7859
rradius 76.447
rwrist -30.455
rhand 1.71145 4.55414
rfingers 7.12502
rthumb 27.2286 -23.5006
lclavicle 1.19271e-015 -9.54166e-015
lhumerus -4.4871 -23.6793 90.9108
lradius 58.8321
lwrist -15.1262
lhand -14.3307 32.0392
lfingers 7.12502
lthumb 11.8103 61.6862
rfemur -46.0777 -6.28475 10.878
rtibia 66.5097
rfoot 3.63079 -0.0863171
rtoes -10.9483
lfemur -46.8784 12.5755 -14.492
ltibia 71.4394
lfoot -0.211245 -7.99857
ltoes -8.94733
108
root 17.6156 13.0304 9.86716 -162.141 -86.5791 137.815
lowerback 26.308 3.92596 -1.32925
upperback 14.1006 3.33437 1.01867
thorax 0.980053 0.931628 1.0292
lowerneck -23.0139 -2.10025 -10.075
upperneck 28.1464 0.0453315 1.5659
head 13.3726 -0.983364 2.29295
rclavicle 3.37934e-014 -1.55052e-014
rhumerus 29.3857 20.6772 -69.6957
rradius 75.5459
rwrist -31.1988
rhand 1.88894 4.4893
rfingers 7.12502
rthumb 27.3984 -23.5387
lclavicle 3.37934e-014 -1.55052e-014
lhumerus -4.36651 -23.9707 90.823
lradius 58.8383
lwrist -14.9875
lhand -14.272 32.1584
lfingers 7.12502
lthumb 11.8668 61.8021
rfemur -46.1497 -6.17799 10.6865
rtibia 66.5492
rfoot 3.62496 -0.144549
rtoes -11.4446
lfemur -46.8706 12.5312 -14.6883
ltibia 71.4069
lfoot -0.157049 -8.12554
ltoes -11.4847
109
root 17.6151 13.0356 9.86798 -162.344 -86.5673 138.069
lowerback 26.1997 3.92453 -1.34757
upperback 14.1512 3.32562 0.976935
thorax 1.08929 0.925481 1.00122
lowerneck -23.1229 -2.02973 -10.1213
upperneck 28.3144 0.168774 1.59456
head 13.4568 -0.939103 2.3365
rclavicle 6.37105e-014 -1.94809e-014
rhumerus 30.1369 20.4515 -69.6991
rradius 74.6796
rwrist -31.5624
rhand 1.83076 4.48587
rfingers 7.12502
rthumb 27.3427 -23.5509
lclavicle 6.37105e-014 -1.94809e-014
lhumerus -4.23102 -24.0402 90.6288
lradius 58.9253
lwrist -14.8802
lhand -14.2757 32.2338
lfingers 7.12502
lthumb 11.8632 61.8777
rfemur -46.1691 -6.12581 10.6546
rtibia 66.5687
rfoot 3.56144 -0.18354
rtoes -10.8153
lfemur -46.8859 12.4863 -14.6875
ltibia 71.3773
lfoot -0.22653 -8.13767
ltoes -11.5947
